<svg width="17" height="13" viewBox="0 0 17 13" fill="none" xmlns="http://www.w3.org/2000/svg">
<path d="M0.656738 6.18065C2.08754 3.81863 4.06041 2.15533 6.78992 1.5141C8.58154 1.09411 10.3373 1.27702 12.0302 2.00492C12.1527 2.05784 12.2198 2.04034 12.3085 1.94992C12.7981 1.45243 13.2935 0.961196 13.7873 0.467875C13.9314 0.323295 14.1018 0.268713 14.3006 0.328711C14.3869 0.351883 14.4649 0.398997 14.5256 0.464614C14.5862 0.530231 14.6271 0.611674 14.6435 0.699536C14.6885 0.901614 14.6081 1.06203 14.4652 1.20411C13.7893 1.87631 13.1152 2.54991 12.4427 3.22489C9.48944 6.17899 6.53646 9.13308 3.58375 12.0872C3.43959 12.2318 3.28542 12.3372 3.07418 12.2955C2.98301 12.2827 2.89751 12.2438 2.82805 12.1833C2.7586 12.1229 2.70819 12.0436 2.68294 11.9551C2.62002 11.7572 2.67044 11.5851 2.81502 11.4401C3.23168 11.0234 3.64833 10.6068 4.06499 10.1901C4.10665 10.1485 4.15332 10.1168 4.21582 10.0651C2.72835 9.1235 1.52713 7.93727 0.656738 6.43064V6.18065ZM6.19577 8.02852C5.25829 6.64522 5.65203 5.05734 6.54576 4.17362C7.43282 3.29614 9.00653 2.9149 10.3615 3.83279L11.369 2.82532C11.3629 2.81963 11.3556 2.81536 11.3477 2.81282C9.63152 2.162 7.90114 2.122 6.1716 2.73699C4.32332 3.39322 2.92418 4.62402 1.80838 6.20732C1.75088 6.28857 1.76671 6.33981 1.81588 6.41106C2.23537 7.01443 2.72009 7.56971 3.26126 8.06685C3.76857 8.53922 4.32897 8.95113 4.93122 9.29433L6.19577 8.02852ZM6.942 7.28979L9.6386 4.59319C9.07903 4.19028 8.01364 4.14737 7.26866 4.86902C6.52909 5.58358 6.50951 6.65356 6.942 7.28979Z" fill="#1B224D"/>
<path d="M16.6563 6.43062C15.2814 8.70806 13.3864 10.3326 10.7836 11.0351C9.26735 11.4442 7.74572 11.3917 6.23784 10.9518C6.21205 10.9412 6.187 10.929 6.16284 10.9151C6.42742 10.6522 6.68241 10.3951 6.94324 10.1443C6.96242 10.1325 6.9838 10.1247 7.00607 10.1214C7.02834 10.1181 7.05105 10.1194 7.07282 10.1251C9.56776 10.6468 11.7552 9.99136 13.6939 8.39432C14.3828 7.82004 14.9896 7.15383 15.4972 6.41437C15.5534 6.33312 15.5551 6.27895 15.4972 6.19729C14.913 5.3586 14.2055 4.61298 13.3985 3.98568C13.3535 3.95068 13.3081 3.91526 13.2639 3.87943C13.2591 3.87495 13.2554 3.86938 13.2531 3.86318L13.9739 3.14111C15.0485 3.98068 15.9697 4.9744 16.6559 6.17937L16.6563 6.43062Z" fill="#1B224D"/>
<path d="M7.89404 9.18388C8.1857 8.89222 8.47278 8.60598 8.76235 8.32432C8.79996 8.29708 8.84471 8.28144 8.8911 8.27932C9.8215 8.15432 10.5115 7.46767 10.6298 6.54478C10.6308 6.49845 10.6453 6.45341 10.6715 6.4152C10.954 6.12562 11.241 5.84063 11.531 5.5498C11.8085 6.30895 11.6335 7.53434 10.8227 8.38015C9.97316 9.26388 8.72319 9.46638 7.89404 9.18388Z" fill="#1B224D"/>
</svg>
