<svg width="19" height="21" viewBox="0 0 19 21" fill="none" xmlns="http://www.w3.org/2000/svg">
<path d="M7.17113 18.3546V15.5783C7.17112 14.8722 7.7468 14.2984 8.46006 14.2937H11.0727C11.7894 14.2937 12.3704 14.8689 12.3704 15.5783V15.5783V18.3632C12.3702 18.9627 12.8536 19.4527 13.459 19.4668H15.2008C16.9371 19.4668 18.3447 18.0733 18.3447 16.3543V16.3543V8.45671C18.3355 7.78047 18.0147 7.14544 17.4738 6.73234L11.5169 1.98171C10.4733 1.15453 8.98982 1.15453 7.94623 1.98171L2.01543 6.74097C1.47247 7.15238 1.15122 7.78847 1.14453 8.46533V16.3543C1.14453 18.0733 2.55212 19.4668 4.28847 19.4668H6.03026C6.65073 19.4668 7.15371 18.9688 7.15371 18.3546V18.3546" stroke="black" stroke-width="1.2" stroke-linecap="round" stroke-linejoin="round"/>
</svg>
