<svg width="26" height="26" viewBox="0 0 26 26" fill="#000000" xmlns="http://www.w3.org/2000/svg">
<g clip-path="url(#clip0_672_1087)">
<path d="M13.0547 12.7109C10.3614 12.7109 8.16263 10.5049 8.1719 7.81641C8.18118 5.12793 10.3775 2.94531 13.0547 2.94531C15.7432 2.94531 17.9478 5.1582 17.9375 7.8418C17.9273 10.5254 15.7368 12.7109 13.0547 12.7109ZM16.961 7.82812C16.9576 6.795 16.5465 5.80499 15.817 5.07346C15.0874 4.34192 14.0986 3.92805 13.0655 3.92188C10.917 3.91504 9.14895 5.67969 9.15042 7.82812C9.17325 8.84875 9.59472 9.81988 10.3246 10.5336C11.0545 11.2474 12.0348 11.647 13.0557 11.647C14.0766 11.647 15.0569 11.2474 15.7868 10.5336C16.5167 9.81988 16.9381 8.84875 16.961 7.82812Z" fill="#000000"/>
<path d="M25.3872 24.1467C23.8062 22.1519 22.2243 20.1573 20.6416 18.1628C20.5747 18.0715 20.4861 17.9981 20.3838 17.9495C20.2815 17.9008 20.1688 17.8783 20.0557 17.884C18.7705 17.8909 17.4854 17.887 16.1982 17.887H15.9126C15.9844 17.7703 16.0288 17.6946 16.0762 17.6204C17.2598 15.7625 18.4653 13.9182 19.6216 12.0437C21.1626 9.54517 21.3066 6.93628 20.0049 4.30737C18.9902 2.25659 17.3257 0.927002 15.1172 0.310791C14.6045 0.167725 14.0674 0.112061 13.5415 0.0178223H12.5664C12.5205 0.0327846 12.4735 0.0440511 12.4258 0.0515138C10.3657 0.234131 8.64355 1.09692 7.25 2.62134C4.96191 5.12231 4.58203 8.98071 6.37109 11.8591C7.57715 13.7991 8.82031 15.7166 10.0464 17.6428C10.0918 17.7141 10.1343 17.7893 10.1963 17.887H9.88623C8.6167 17.887 7.34717 17.8918 6.07764 17.8835C5.80908 17.8835 5.6167 17.9695 5.45117 18.1814C4.8208 18.989 4.17773 19.7874 3.54248 20.5916C2.54574 21.8539 1.5498 23.1171 0.554688 24.3811V25.0159H25.5547V24.3811C25.499 24.303 25.4468 24.2219 25.3872 24.1467ZM7.23193 11.3928C5.37402 8.41431 6.13965 4.47485 8.94629 2.37964C12.0947 0.0290533 16.5146 0.727295 18.6958 4.00366C20.2729 6.3728 20.3696 8.90308 18.8911 11.3455C17.04 14.405 15.0649 17.3894 13.1431 20.4065C13.1221 20.4397 13.0967 20.4705 13.0488 20.5354C12.7236 20.0261 12.418 19.5476 12.1128 19.0706C10.4844 16.509 8.8374 13.9631 7.23193 11.3928ZM22.0518 24.0393H2.05322C2.50635 23.4695 2.93213 22.9314 3.35791 22.4011L4.52393 20.9294C4.79411 20.5903 5.0612 20.254 5.3252 19.9207L5.33008 19.9148C5.58203 19.5977 5.83366 19.2825 6.08496 18.969C6.12158 18.9236 6.18555 18.8713 6.2373 18.8713H6.51465L6.51904 18.8669H10.46C10.6284 18.8215 10.8315 18.8762 10.9243 19.0217C10.9409 19.0476 10.9575 19.074 10.9731 19.0999L10.9873 19.1218C11.3418 19.6752 11.6956 20.2305 12.0488 20.7878C12.0776 20.8333 12.1021 20.8816 12.1411 20.9514H12.1382L12.7617 21.9397H13.3184L15.1973 18.9993C15.3008 18.8445 15.7891 18.8635 15.7891 18.8635C15.7891 18.8635 18.9106 18.8635 19.7563 18.8679C19.8433 18.8679 19.9619 18.8953 20.0107 18.9548C20.1396 19.113 20.2676 19.2712 20.396 19.4309C20.7935 19.9255 21.1919 20.4304 21.6138 20.9617L23.2192 22.9827C23.4927 23.3245 23.77 23.677 24.0571 24.0378L22.0518 24.0393Z" fill="#000000"/>
</g>
<defs>
<clipPath id="clip0_672_1087">
<rect width="25" height="25" fill="white" transform="translate(0.554688 0.015625)"/>
</clipPath>
</defs>
</svg>
