<svg width="17" height="11" viewBox="0 0 17 11" fill="none" xmlns="http://www.w3.org/2000/svg">
<path d="M0 5.21328C0.0815235 5.08737 0.146335 4.95071 0.244571 4.83708C1.41851 3.45166 2.78036 2.2651 4.41735 1.37527C5.49509 0.790629 6.64539 0.397539 7.89678 0.31846C9.043 0.245907 10.1387 0.45819 11.1915 0.881607C12.6997 1.4889 13.9874 2.39562 15.1336 3.48468C15.6097 3.93689 16.0442 4.42863 16.4845 4.91309C16.7343 5.18833 16.725 5.41481 16.4865 5.69927C15.3044 7.11117 13.9283 8.32268 12.2668 9.22518C10.9625 9.93343 9.57045 10.3618 8.04311 10.2981C6.9939 10.2544 6.00502 9.98794 5.0675 9.55378C3.09586 8.64168 1.51756 7.28583 0.167123 5.67662C0.0978281 5.59447 0.0578816 5.49082 0.00407611 5.39677L0 5.21328ZM1.24242 5.29466C1.30356 5.36299 1.34514 5.41596 1.39324 5.4628C1.90031 5.95224 2.38497 6.46433 2.92058 6.92422C3.95348 7.81136 5.10256 8.53458 6.43954 8.96261C7.2397 9.21904 8.06064 9.32767 8.90441 9.24053C9.98663 9.12882 10.9674 8.75262 11.8918 8.22902C13.0935 7.55109 14.1207 6.67815 15.0525 5.70042C15.1748 5.57259 15.2905 5.43938 15.4214 5.29581C15.1014 4.9699 14.8014 4.64744 14.4839 4.34264C13.4106 3.31692 12.2228 2.43708 10.8088 1.85896C10.104 1.57105 9.37031 1.3818 8.59665 1.34763C7.41456 1.29504 6.32704 1.60598 5.29128 2.11001C4.13365 2.67355 3.13091 3.43439 2.2207 4.3031C1.88523 4.62172 1.57137 4.95915 1.24242 5.29466Z" fill="#1B224D"/>
<path d="M11.624 5.31842C11.611 7.03819 10.122 8.42513 8.30971 8.40555C6.48603 8.38636 5.02635 6.99673 5.03939 5.29231C5.05284 3.57216 6.54065 2.18559 8.35373 2.20479C10.1766 2.22436 11.6371 3.61438 11.624 5.31842ZM10.5259 5.31112C10.527 4.76375 10.2977 4.23828 9.88833 3.84976C9.47892 3.46124 8.92271 3.24133 8.3415 3.23818C7.13659 3.22552 6.13222 4.16793 6.13548 5.30843C6.14279 5.85187 6.37701 6.37075 6.78746 6.75279C7.19792 7.13483 7.7516 7.3493 8.32869 7.34981C8.90578 7.35031 9.45988 7.13681 9.87109 6.75549C10.2823 6.37416 10.5175 5.8557 10.5259 5.31227V5.31112Z" fill="#1B224D"/>
</svg>
